<svg xmlns="http://www.w3.org/2000/svg" width="20" height="20" viewBox="0 0 20 20">
    <g fill="none" fill-rule="evenodd">
        <circle cx="10" cy="10" r="10" fill="#D0021B"/>
        <path fill="#FFF" d="M16.293 10.608a.375.375 0 0 0-.391.392v4.09c0 .147-.091.238-.238.238H4.336c-.147 0-.238-.09-.238-.237V11a.375.375 0 0 0-.391-.392.375.375 0 0 0-.392.392v4.09a.999.999 0 0 0 1.02 1.022h11.33a.999.999 0 0 0 1.02-1.021V11a.375.375 0 0 0-.392-.392"/>
        <path fill="#FFF" d="M10.944 9.979H9.056a.375.375 0 0 0-.392.392v.155l-4.69-1.05c-.118-.023-.19-.114-.19-.238V7.224c0-.147.09-.238.237-.238H15.98c.146 0 .237.091.237.238v2.014a.23.23 0 0 1-.191.24l-4.69 1.048v-.155a.375.375 0 0 0-.391-.392zm-1.496 1.888h1.104v-1.104H9.448v1.104zm6.53-5.664H4.022A.999.999 0 0 0 3 7.224v2.014c0 .467.33.883.784.988l4.88 1.088v.945c0 .23.161.392.392.392h1.888c.23 0 .392-.162.392-.392v-.945l4.88-1.088A1.02 1.02 0 0 0 17 9.238V7.224a.999.999 0 0 0-1.021-1.021zM7.797 5.728c.231 0 .392-.161.392-.392V5.02c0-.146.091-.237.238-.237h3.146c.147 0 .238.09.238.237v.315c0 .23.161.392.392.392.23 0 .392-.161.392-.392V5.02A.999.999 0 0 0 11.573 4H8.427a.999.999 0 0 0-1.022 1.021v.315c0 .23.162.392.392.392"/>
    </g>
</svg>
