<svg xmlns="http://www.w3.org/2000/svg" width="170" height="88" viewBox="0 0 170 88">
    <defs>
        <linearGradient id="a" x1="50%" x2="50%" y1="0%" y2="100%">
            <stop offset="0%" stop-color="#F5515F"/>
            <stop offset="100%" stop-color="#B7001B"/>
        </linearGradient>
    </defs>
    <g fill="none" fill-rule="evenodd">
        <path fill="#C6142C" d="M20.476 75.907H4.303v3.907h14.4c2.032.001 3.423.23 4.172.69.75.459 1.125 1.328 1.125 2.608v1.577c0 1.29-.367 2.163-1.103 2.622-.735.46-2.133.689-4.194.689H5.363c-2.076 0-3.489-.232-4.238-.695C.375 86.84 0 85.969 0 84.689v-.385l3.546-.503v2.252h17.016V81.84H6.206c-2.076 0-3.481-.232-4.217-.695C1.254 80.682.887 79.81.887 78.53v-1.218c0-1.28.367-2.152 1.102-2.616.736-.464 2.14-.695 4.217-.695h12.173c2.032 0 3.434.228 4.205.682.772.455 1.157 1.251 1.157 2.39v.292l-3.265.57v-2.027z"/>
        <path fill="#FFF" d="M33 87V76h3.57v4.714L48.493 76h4.96l-13.947 5.31L55 87h-5.831l-12.6-4.93V87zM67.765 87v-4.803L58 76h4.29l7.458 4.765L76.861 76H81l-9.721 6.197V87zM86 87V76h3.519v9.34H104V87zM109 87h3V76h-3zM123.91 78.206a7.72 7.72 0 0 1 .252 1.964V87H121V76h2.618l13.337 7.186c.39.203.764.427 1.12.67.356.246.708.524 1.057.837a7.105 7.105 0 0 1-.293-2.052V76H142v11h-2.344l-13.61-7.287c-.473-.27-.882-.526-1.224-.767a7.992 7.992 0 0 1-.911-.74M151 87V76h18.828v1.635h-15.295v2.826h9.22v1.635h-9.22v3.295H170V87zM0 68h169v-2H0zM46.755 54.905H51V23.176h-4.245v31.73zm2.3 3.095c-1.533 0-2.3-.492-2.3-1.476 0-1.079.767-1.619 2.3-1.619 1.297 0 1.945.54 1.945 1.619 0 .984-.648 1.476-1.945 1.476zm-2.848-3.587h-6.52l5.123-.82 1.397-3.484v4.304zM4.245 23.176h42.4V20h-42.4v3.176zM50.89 21.62c0 1.039-.723 1.557-2.165 1.557-1.387 0-2.081-.518-2.081-1.557 0-1.08.694-1.619 2.08-1.619 1.443 0 2.166.54 2.166 1.619zm-4.794 2.193v4.735l-1.178-3.833-4.684-.902h5.862zM4.245 58h42.4v-3.095h-42.4V58zM0 56.524c0-1.079.694-1.619 2.081-1.619 1.444 0 2.165.54 2.164 1.619.001.984-.72 1.476-2.164 1.476C.694 58 0 57.508 0 56.524zm4.903-2.11v-4.88L6 53.349l4.655 1.065h-5.75zM0 54.904h4.244V23.176H0v31.73zM2.081 20c1.444 0 2.165.512 2.164 1.537.001 1.093-.72 1.64-2.164 1.64C.694 23.176 0 22.63 0 21.536 0 20.512.694 20 2.081 20zm2.822 3.505h6.299l-5.094.799-1.205 3.505v-4.304zM164.757 54.905H169V23.176h-4.243v31.73zM167.054 58c-1.532 0-2.298-.492-2.298-1.476 0-1.079.766-1.619 2.298-1.619 1.299 0 1.946.54 1.946 1.619 0 .984-.647 1.476-1.946 1.476zm-2.847-3.587h-6.52l5.122-.82 1.398-3.484v4.304zm-41.96-31.237h42.397V20h-42.396v3.176zm46.643-1.557c0 1.039-.72 1.557-2.164 1.557-1.388 0-2.082-.518-2.082-1.557 0-1.08.694-1.619 2.082-1.619 1.444 0 2.164.54 2.164 1.619zm-4.794 2.193v4.735l-1.178-3.833-4.684-.902h5.862zM122.248 58h42.396v-3.095h-42.396V58zM118 56.524c0-1.079.696-1.619 2.082-1.619 1.444 0 2.166.54 2.166 1.619 0 .984-.722 1.476-2.166 1.476-1.386 0-2.082-.492-2.082-1.476zm4.904-2.11v-4.88l1.095 3.814 4.656 1.065h-5.751zm-4.904.491h4.247V23.176H118v31.73zM120.082 20c1.444 0 2.166.512 2.166 1.537 0 1.093-.722 1.64-2.166 1.64-1.386 0-2.082-.547-2.082-1.64 0-1.025.696-1.537 2.082-1.537zm2.822 3.505h6.298l-5.095.799-1.203 3.505v-4.304z"/>
        <path fill="url(#a)" d="M69.688 34.413l5.122-.819 1.397-3.485v4.304h-6.52zm-34.785 0v-4.878L36 33.347l4.656 1.066h-5.752zM79.055 38c-1.533 0-2.3-.492-2.3-1.475 0-1.079.767-1.62 2.3-1.62h-2.3V22.56H81v12.344h-1.945c1.297 0 1.945.542 1.945 1.62 0 .984-.648 1.476-1.945 1.476zm-46.973 0C30.694 38 30 37.508 30 36.525c0-1.079.694-1.62 2.082-1.62H30V22.68h4.245v12.224h42.4V38h-42.4v-3.096h-2.163c1.443 0 2.164.542 2.163 1.62.001.984-.72 1.476-2.163 1.476zm2.82-30.19V3.504h6.3l-5.095.8-1.204 3.504zm41.195.738l-1.178-3.834-4.684-.901h5.862v4.735zm.659 14.193V3.176h1.97c-1.387 0-2.081-.518-2.081-1.557 0-1.08.694-1.619 2.082-1.619 1.442 0 2.163.54 2.163 1.619 0 1.039-.721 1.557-2.163 1.557H81V22.74h-4.244zM30 19.47V3.176h2.082C30.695 3.176 30 2.63 30 1.536 30 .513 30.695 0 32.082 0c1.444 0 2.165.512 2.163 1.537.002 1.093-.72 1.639-2.163 1.639h2.163V0h42.4v3.176h-42.4V19.47H30z"/>
        <path fill="#FFF" d="M105.755 54.905H110V23.176h-4.245v31.73zm2.3 3.095c-1.533 0-2.3-.492-2.3-1.476 0-1.079.767-1.619 2.3-1.619 1.297 0 1.945.54 1.945 1.619 0 .984-.648 1.476-1.945 1.476zm-2.848-3.587h-6.52l5.124-.82 1.396-3.484v4.304zM63.244 23.176h42.4V20h-42.4v3.176zm46.647-1.557c0 1.039-.723 1.557-2.164 1.557-1.388 0-2.083-.518-2.083-1.557 0-1.08.695-1.619 2.083-1.619 1.441 0 2.164.54 2.164 1.619zm-4.794 2.193v4.735l-1.178-3.833-4.685-.902h5.863zM63.245 58h42.4v-3.095h-42.4V58zM59 56.524c0-1.079.694-1.619 2.082-1.619 1.443 0 2.164.54 2.163 1.619 0 .984-.72 1.476-2.163 1.476C59.694 58 59 57.508 59 56.524zm4.903-2.11v-4.88l1.095 3.814 4.655 1.065h-5.75zM59 54.904h4.245V23.176H59v31.73zM61.082 20c1.443 0 2.164.512 2.163 1.537 0 1.093-.72 1.64-2.163 1.64-1.388 0-2.082-.547-2.082-1.64 0-1.025.694-1.537 2.082-1.537zm2.821 3.505h6.299l-5.095.799-1.204 3.505v-4.304z"/>
    </g>
</svg>
