<svg xmlns="http://www.w3.org/2000/svg" width="58" height="58" viewBox="0 0 58 58">
    <defs>
        <filter id="a" width="128%" height="128%" x="-14%" filterUnits="objectBoundingBox">
            <feOffset dy="2" in="SourceAlpha" result="shadowOffsetOuter1"/>
            <feGaussianBlur in="shadowOffsetOuter1" result="shadowBlurOuter1" stdDeviation="2"/>
            <feColorMatrix in="shadowBlurOuter1" result="shadowMatrixOuter1" values="0 0 0 0 0 0 0 0 0 0 0 0 0 0 0 0 0 0 0.5 0"/>
            <feMerge>
                <feMergeNode in="shadowMatrixOuter1"/>
                <feMergeNode in="SourceGraphic"/>
            </feMerge>
        </filter>
        <linearGradient id="b" x1="50%" x2="50%" y1="0%" y2="100%">
            <stop offset="0%" stop-color="#F5515F"/>
            <stop offset="100%" stop-color="#B7001B"/>
        </linearGradient>
    </defs>
    <g fill="none" fill-rule="evenodd" filter="url(#a)" transform="translate(4 2)">
        <circle cx="25" cy="25" r="25" fill="#FFF"/>
        <path fill="url(#b)" d="M37.858 34.82l-1.266 1.258a6.667 6.667 0 0 1-6.292 1.8 22.15 22.15 0 0 1-6.433-2.883 29.72 29.72 0 0 1-5.075-4.092 29.952 29.952 0 0 1-3.792-4.6 23.332 23.332 0 0 1-2.85-5.767 6.666 6.666 0 0 1 1.667-6.808l1.483-1.483a1.058 1.058 0 0 1 1.497-.004l.003.004 4.683 4.683c.415.412.416 1.082.004 1.497l-.004.003-2.75 2.75a2.242 2.242 0 0 0-.233 2.917 32.154 32.154 0 0 0 3.292 3.841 31.964 31.964 0 0 0 4.333 3.642c.895.624 2.109.52 2.883-.25l2.659-2.7a1.058 1.058 0 0 1 1.5 0l4.691 4.7c.415.412.416 1.082.004 1.497l-.004.003v-.008zm4.817-27.5C32.91-2.442 17.081-2.44 7.32 7.325c-9.762 9.765-9.76 25.594.005 35.355 9.765 9.762 25.594 9.76 35.355-.005a25 25 0 0 0-.005-35.355z"/>
    </g>
</svg>
