<svg xmlns="http://www.w3.org/2000/svg" width="28" height="26" viewBox="0 0 28 26">
    <defs>
        <linearGradient id="a" x1="50%" x2="50%" y1="0%" y2="100%">
            <stop offset="0%" stop-color="#F5515F"/>
            <stop offset="100%" stop-color="#B7001B"/>
        </linearGradient>
    </defs>
    <path fill="url(#a)" fill-rule="evenodd" d="M128.393 26.528c-.097.119-.249.304-.454.513-.11.103-.223.215-.364.32a3.31 3.31 0 0 1-.456.304 2.933 2.933 0 0 1-1.109.347l-.283.02-.276-.015c-.18-.002-.35-.05-.512-.077-.162-.03-.31-.09-.45-.13-.14-.037-.267-.106-.384-.152-.236-.093-.405-.2-.533-.267a287.34 287.34 0 0 0-.197-.108l.222.034c.14.019.346.063.584.068.12.002.242.023.378.01.134-.01.275-.004.415-.028.139-.028.283-.036.417-.086l.202-.061.187-.087c.493-.237.761-.654.917-1.003.077-.18.132-.338.173-.463l.071-.205 1.598.887-.146.179M113.59 11.989l-.168.069c-.137.052-.301.11-.484.19-.085.04-.18.084-.267.139a1.51 1.51 0 0 0-.261.189c-.088.07-.157.161-.237.256-.059.105-.135.212-.176.341-.06.122-.082.262-.117.4-.028.14-.033.286-.05.428-.002.287.01.563.047.799.02.239.08.44.105.58l.046.221-.12-.191c-.072-.126-.194-.288-.302-.518a5.473 5.473 0 0 1-.35-.808c-.038-.16-.091-.325-.12-.503-.021-.179-.056-.364-.042-.559-.006-.194.034-.39.07-.59a2.946 2.946 0 0 1 .519-1.038c.11-.145.222-.263.328-.373.213-.207.397-.358.504-.45.062-.052.087-.08.114-.104l.037-.034.987 1.53-.063.026m15.117 11.395c-2.876-2.293-3.68-1.166-4.985.128-.911.905-3.217-.983-5.208-2.958-1.99-1.976-3.893-4.263-2.982-5.167 1.305-1.294 2.44-2.092.128-4.945-2.31-2.853-3.852-.662-5.116.592-1.46 1.447-.077 6.84 5.297 12.172 5.374 5.331 10.81 6.702 12.27 5.255 1.263-1.254 3.472-2.783.596-5.077M125.523 3c-4.217 0-7.95 2.089-10.21 5.276.468.303.924.718 1.365 1.251a10.657 10.657 0 0 1 7.564-4.631l1.281 2.15 1.281-2.15c4.848.579 8.7 4.401 9.285 9.21l-2.168 1.271 2.168 1.271c-.39 3.215-2.247 5.983-4.88 7.642.168.38.263.767.28 1.167.012.292-.019.568-.08.83 3.92-2.09 6.591-6.195 6.591-10.91C138 8.552 132.403 3 125.523 3m7.541 9.8a.68.68 0 0 1-.376.888l-6.714 2.72a1.147 1.147 0 0 1-.45.105c-.372 0-.737-.18-.957-.513l-3.33-5.03a1.13 1.13 0 0 1 .328-1.572 1.15 1.15 0 0 1 1.585.326l3.319 5.013 5.7-2.31a.688.688 0 0 1 .895.373" transform="translate(-110 -3)"/>
</svg>
