<svg xmlns="http://www.w3.org/2000/svg" width="20" height="20" viewBox="0 0 20 20">
    <g fill="none" fill-rule="evenodd">
        <circle cx="10" cy="10" r="10" fill="#D0021B"/>
        <path stroke="#FFF" stroke-width=".8" d="M15 16.205a1.81 1.81 0 0 0-1.003-1.51l-2.176-1.083a.826.826 0 0 1-.46-.739v-.848c.062-.07.131-.159.207-.264.296-.417.521-.875.677-1.356a.68.68 0 0 0 .484-.646v-.906a.67.67 0 0 0-.228-.503V7.04S12.77 5 9.995 5C7.216 5 7.488 7.039 7.488 7.039V8.35a.67.67 0 0 0-.229.503v.906c0 .239.126.449.315.57.228.986.825 1.696.825 1.696v.827c0 .302-.166.58-.433.725L5.933 14.68c-.51.276-.851.774-.933 1.335A7.544 7.544 0 0 0 10.108 18 7.54 7.54 0 0 0 15 16.205"/>
        <path stroke="#FFF" stroke-width=".8" d="M18 10a8 8 0 1 1-16 0 8 8 0 0 1 16 0z"/>
    </g>
</svg>
