<svg xmlns="http://www.w3.org/2000/svg" width="18" height="18" viewBox="0 0 18 18">
    <g fill="#FFF" fill-rule="evenodd">
        <path d="M9 10.957A1.96 1.96 0 0 0 10.957 9 1.96 1.96 0 0 0 9 7.043 1.96 1.96 0 0 0 7.043 9 1.96 1.96 0 0 0 9 10.957M12.392 5.478h-.523c-.078 0-.13.053-.13.13v.523c0 .078.052.13.13.13h.523c.078 0 .13-.052.13-.13v-.523c0-.077-.052-.13-.13-.13"/>
        <path d="M11.642 9.044c0 1.436-1.189 2.61-2.642 2.61-1.453 0-2.642-1.174-2.642-2.61 0-.13 0-.304.045-.435h-.925v3.696c0 .13.088.217.22.217h6.604c.132 0 .22-.087.22-.217V8.61h-.925c.045.131.045.306.045.435"/>
        <path d="M13.561 12.648c0 .503-.41.913-.913.913H5.352a.915.915 0 0 1-.913-.913V5.352c0-.504.41-.913.913-.913h7.296c.504 0 .913.41.913.913v7.296zM9 0a9 9 0 1 0 0 18A9 9 0 0 0 9 0z"/>
    </g>
</svg>
