<svg xmlns="http://www.w3.org/2000/svg" width="20" height="20" viewBox="0 0 20 20">
    <g fill="none" fill-rule="evenodd">
        <circle cx="10" cy="10" r="10" fill="#D0021B"/>
        <g fill="#FFF">
            <path d="M17.103 10.704c0 .044-.03.08-.074.087l-1.403.234a.449.449 0 0 0-.361.331c-.127.491-.321.963-.582 1.4a.452.452 0 0 0 .02.492l.826 1.163a.091.091 0 0 1-.01.113l-.996.996a.085.085 0 0 1-.064.027.083.083 0 0 1-.05-.017l-1.16-.825a.452.452 0 0 0-.491-.02c-.438.26-.909.454-1.4.581a.444.444 0 0 0-.331.361l-.238 1.404a.087.087 0 0 1-.086.073H9.296a.087.087 0 0 1-.087-.073l-.234-1.404a.449.449 0 0 0-.331-.36 5.558 5.558 0 0 1-1.37-.562.463.463 0 0 0-.228-.06.44.44 0 0 0-.26.083l-1.17.832a.099.099 0 0 1-.05.017.09.09 0 0 1-.064-.027l-.995-.996a.09.09 0 0 1-.01-.113l.822-1.153a.458.458 0 0 0 .02-.495 5.295 5.295 0 0 1-.589-1.397.458.458 0 0 0-.36-.33l-1.414-.241a.086.086 0 0 1-.074-.087V9.33c0-.044.03-.08.074-.087l1.393-.234c.178-.03.321-.16.365-.334.123-.492.314-.966.571-1.404a.446.446 0 0 0-.023-.488l-.832-1.17a.09.09 0 0 1 .01-.113l.996-.996a.085.085 0 0 1 .063-.027c.02 0 .037.007.05.017l1.153.822c.147.104.341.11.495.02.434-.26.906-.461 1.397-.588.17-.047.3-.187.33-.361l.241-1.414a.087.087 0 0 1 .087-.073h1.407c.044 0 .08.03.087.073L11 4.368c.03.177.16.32.334.364.505.127.986.324 1.434.588.154.09.344.084.491-.02l1.153-.829a.099.099 0 0 1 .05-.016.09.09 0 0 1 .064.026l.996.996a.09.09 0 0 1 .01.114l-.826 1.16a.452.452 0 0 0-.02.491c.261.438.455.909.582 1.4a.443.443 0 0 0 .36.331l1.404.237a.087.087 0 0 1 .074.087v1.407h-.003zm.077-2.383l-1.123-.19a6.348 6.348 0 0 0-.452-1.09l.662-.925a.985.985 0 0 0-.107-1.274l-.996-.996a.981.981 0 0 0-1.27-.106l-.929.661a6.274 6.274 0 0 0-1.13-.464l-.187-1.11a.987.987 0 0 0-.975-.825H9.266a.987.987 0 0 0-.976.825l-.194 1.136c-.374.117-.739.271-1.086.458l-.92-.662a.981.981 0 0 0-.574-.183.975.975 0 0 0-.699.29l-.999.996a.99.99 0 0 0-.107 1.274l.669.939c-.184.35-.331.715-.445 1.093l-1.11.187A.987.987 0 0 0 2 9.33v1.407c0 .484.348.895.826.976l1.136.193c.117.375.27.739.458 1.087l-.659.915a.985.985 0 0 0 .107 1.274l.996.996a.981.981 0 0 0 1.27.107l.94-.669c.337.177.691.321 1.055.435l.187 1.122c.08.478.492.826.976.826h1.41a.987.987 0 0 0 .977-.826l.19-1.122a6.332 6.332 0 0 0 1.09-.452l.925.662c.167.12.368.184.575.184a.981.981 0 0 0 .699-.29l.996-.997a.99.99 0 0 0 .106-1.273l-.661-.93a6.28 6.28 0 0 0 .45-1.089l1.124-.187a.987.987 0 0 0 .825-.976V9.297a.975.975 0 0 0-.818-.976z"/>
            <path d="M10 12.433A2.435 2.435 0 0 1 7.567 10 2.435 2.435 0 0 1 10 7.567 2.435 2.435 0 0 1 12.433 10 2.435 2.435 0 0 1 10 12.433m0-5.727A3.296 3.296 0 0 0 6.706 10 3.296 3.296 0 0 0 10 13.294 3.296 3.296 0 0 0 13.294 10 3.296 3.296 0 0 0 10 6.706"/>
        </g>
    </g>
</svg>
