<svg xmlns="http://www.w3.org/2000/svg" xmlns:xlink="http://www.w3.org/1999/xlink" width="18" height="18" viewBox="0 0 18 18">
    <defs>
        <path id="a" d="M.09.055h17.783V18H.09z"/>
    </defs>
    <g fill="none" fill-rule="evenodd">
        <mask id="b" fill="#fff">
            <use xlink:href="#a"/>
        </mask>
        <path fill="#FFF" d="M13.53 12.326c-.242.69-1.08 1.386-1.795 1.378-.1-.028-.3-.059-.479-.136-3.141-1.366-5.424-3.602-6.72-6.815-.435-1.077.019-1.986 1.115-2.358a.842.842 0 0 1 .582 0c.468.174 1.651 1.817 1.678 2.31.02.377-.234.58-.486.753-.476.327-.479.74-.275 1.202.46 1.043 1.245 1.76 2.262 2.226.37.169.722.152.974-.233.45-.686 1-.653 1.6-.226.302.213.609.422.896.655.389.317.881.58.648 1.244M11.07 8.15c-.152.018-.252-.11-.268-.27-.058-.585-.364-.931-.946-1.026-.174-.028-.346-.085-.264-.322.054-.16.199-.175.346-.179.63-.016 1.366.745 1.356 1.403.006.18-.013.369-.224.394m1.115.341c-.349.054-.281-.268-.315-.475-.234-1.42-.728-1.942-2.146-2.261-.21-.048-.534-.014-.48-.34.052-.309.343-.204.564-.177 1.417.172 2.575 1.413 2.564 2.776-.022.161.071.437-.187.477m-2.76-4.395c2.206.075 4.106 2.113 4.08 4.312-.004.216.073.535-.245.53-.305-.007-.226-.331-.253-.547-.292-2.334-1.351-3.436-3.648-3.793-.19-.03-.48.012-.466-.241.021-.377.366-.237.532-.26M8.981.054C4.071.055.09 4.072.09 9.027.09 13.983 4.07 18 8.98 18s8.892-4.017 8.892-8.973c0-4.955-3.98-8.972-8.892-8.972" mask="url(#b)"/>
    </g>
</svg>
