<svg xmlns="http://www.w3.org/2000/svg" width="18" height="18" viewBox="0 0 18 18">
    <g fill="#FFF" fill-rule="evenodd">
        <path d="M9.419 13.616c-.86 0-1.67-.222-2.373-.61l-2.719.87.887-2.634a4.91 4.91 0 1 1 4.205 2.375M9 0a9 9 0 1 0 0 18A9 9 0 0 0 9 0"/>
        <path d="M11.729 10.393c-.11.276-.611.529-.832.54-.22.012-.226.172-1.429-.354-1.201-.526-1.924-1.806-1.981-1.888-.057-.082-.466-.669-.443-1.26.022-.59.343-.868.457-.984a.44.44 0 0 1 .326-.138c.08.003.16.016.23.018.07.003.17-.033.262.21.09.245.308.844.336.905.028.061.045.132.002.21-.043.08-.065.129-.127.196-.063.068-.132.152-.188.204-.062.057-.128.12-.062.243.066.122.292.524.637.855.442.426.824.567.942.632.118.065.188.058.262-.02a7.14 7.14 0 0 0 .397-.456c.084-.117.164-.094.272-.05.109.044.687.356.805.42.118.065.197.098.225.15.028.05.02.29-.091.567M9.39 4.696a3.917 3.917 0 0 0-3.913 3.913c0 .856.277 1.649.745 2.294l-.489 1.453 1.504-.481a3.89 3.89 0 0 0 2.153.647 3.918 3.918 0 0 0 3.913-3.913 3.917 3.917 0 0 0-3.913-3.913"/>
    </g>
</svg>
